Coordinates
version=1
nRows=17
nColumns=33
inDegrees=yes

Units are S.I. units (second, meters, Newtons, ...)
Angles are in degrees.

endheader
time	ground_thorax_rot_x	ground_thorax_rot_y	ground_thorax_rot_z	ground_thorax_tx	ground_thorax_ty	ground_thorax_tz	clav_prot_r	clav_elev_r	scapula_abduction_r	scapula_elevation_r	scapula_upward_rot_r	scapula_winging_r	shoulder_elv_r	plane_of_elev_r	axial_rot_r	elbow_flexion_r	pro_sup_r	wrist_flex_r	wrist_dev_r	clav_prot_l	clav_elev_l	scapula_abduction_l	scapula_elevation_l	scapula_upward_rot_l	scapula_winging_l	shoulder_elv_l	plane_of_elev_l	axial_rot_l	elbow_flexion_l	pro_sup_l	wrist_flex_l	wrist_dev_l
      6.93000000	     39.28782520	     10.06827275	     11.32237553	   -222.03592702	    845.98432173	      2.35260117	     13.46414578	     36.52384072	     38.35978077	     45.00000000	    -45.00000000	  -2605.65258870	  -3702.91090863	    142.59399959	    179.99999979	   1453.94766030	     54.01147304	     22.83202979	      6.82322394	      7.02400842	    -45.00000000	    -38.64706081	     45.00000000	    -36.92323496	    818.79878439	  -2251.30135282	    138.27563715	    153.15240857	    370.47266934	      1.51128028	      7.49413750	    -20.40613998
      6.94000000	     39.28824400	      9.97076820	     11.28651258	   -223.44238919	    846.70167997	      2.38366790	     13.45043063	     36.42501526	     38.21539250	     45.00000000	    -45.00000000	  -2605.71877072	  -3702.89420351	    142.57228472	    179.99999979	   1453.91505795	     54.30346629	     22.82662727	      6.73480903	      7.07647874	    -45.00000000	    -38.62615689	     45.00000000	    -37.15365138	    818.89167191	  -2251.24594312	    138.28506625	    152.90157283	    370.49468223	      1.67166250	      7.36593707	    -20.42638756
      6.95000000	     39.26758626	      9.83214362	     11.24263571	   -224.82276478	    847.39178618	      2.42050709	     13.36061157	     36.42639753	     38.11383843	     45.00000000	    -45.00000000	  -2605.69545660	  -3702.84747663	    142.62192407	    179.99999979	   1453.89241319	     54.63309500	     22.86276927	      6.65471195	      7.09753161	    -45.00000000	    -38.58178949	     45.00000000	    -37.33499062	    818.98795676	  -2251.19105261	    138.34692342	    152.71128193	    370.46539329	      1.88558199	      7.19926643	    -20.44022024
      6.96000000	     39.28381345	      9.69979383	     11.14182223	   -226.18011879	    848.05269105	      2.46342359	     13.28559158	     36.40859672	     37.94346760	     45.00000000	    -45.00000000	  -2605.69391446	  -3702.80456358	    142.62656919	    179.99999979	   1453.90624962	     54.99697131	     22.90664164	      6.56200885	      7.13231179	    -45.00000000	    -38.50647707	     45.00000000	    -37.51576420	    819.06805480	  -2251.16004722	    138.32422656	    152.49931804	    370.52377505	      2.16019997	      7.03513611	    -20.47073045
      6.97000000	     39.27544103	      9.58388617	     11.11468032	   -227.51637268	    848.68140742	      2.51268064	     13.27025227	     36.31233123	     37.81955444	     45.00000000	    -45.00000000	  -2605.72536116	  -3702.79336539	    142.60431018	    179.99999979	   1453.89181443	     55.39781963	     22.88918325	      6.42204186	      7.17013962	    -45.00000000	    -38.45640048	     45.00000000	    -37.80892775	    819.16584706	  -2251.08551210	    138.32936906	    152.23449053	    370.53246006	      2.50845024	      6.87197307	    -20.48994875
      6.98000000	     39.29488194	      9.49314272	     11.03008126	   -228.83516512	    849.27546003	      2.56890210	     13.19464574	     36.31078015	     37.67990189	     45.00000000	    -45.00000000	  -2605.71272335	  -3702.76978564	    142.65852276	    179.99999979	   1453.91663728	     55.85702354	     22.95044385	      6.32196385	      7.19782424	    -45.00000000	    -38.39495499	     45.00000000	    -38.01922324	    819.23722902	  -2251.09024580	    138.34741793	    152.06602557	    370.59350260	      2.90227254	      6.67634191	    -20.51820549
      6.99000000	     39.25743459	      9.36460290	     11.04593388	   -230.13553470	    849.82996988	      2.63187636	     13.13742941	     36.26790457	     37.57353902	     45.00000000	    -45.00000000	  -2605.68417847	  -3702.74718466	    142.69213249	    179.99999979	   1453.83916074	     56.36383389	     22.94734617	      6.19196670	      7.22882638	    -45.00000000	    -38.33979512	     45.00000000	    -38.27882673	    819.30931196	  -2250.99246148	    138.37307538	    151.87708613	    370.52339499	      3.35544478	      6.48395822	    -20.51716283
      7.00000000	     39.29589036	      9.27298102	     10.93243906	   -231.42143338	    850.34255677	      2.70175983	     13.09149471	     36.22160223	     37.40247522	     45.00000000	    -45.00000000	  -2605.73440029	  -3702.70711634	    142.70286194	    179.99999979	   1453.91665509	     56.89672659	     22.98829655	      6.05146099	      7.25736046	    -45.00000000	    -38.27665770	     45.00000000	    -38.52909143	    819.40118901	  -2250.98972007	    138.35543649	    151.71782012	    370.63287571	      3.85400235	      6.30657778	    -20.55111957
      7.01000000	     39.28862055	      9.13676392	     10.89680083	   -232.69619327	    850.81118386	      2.77878719	     13.02704937	     36.19753919	     37.27686297	     45.00000000	    -45.00000000	  -2605.71178548	  -3702.68087979	    142.72065974	    179.99999979	   1453.96055543	     57.45503962	     23.01906874	      5.90652122	      7.28404723	    -45.00000000	    -38.21676752	     45.00000000	    -38.83026640	    819.45093427	  -2250.90313981	    138.36342905	    151.55130953	    370.65345917	      4.38416674	      6.10519231	    -20.56277350
      7.02000000	     39.31335878	      9.07176818	     10.86604908	   -233.95980065	    851.23351329	      2.86296779	     12.99318666	     36.13453745	     37.13732620	     45.00000000	    -45.00000000	  -2605.74377330	  -3702.68120066	    142.76586640	    179.99999979	   1453.98124140	     58.03890436	     23.02651799	      5.76339966	      7.30890547	    -45.00000000	    -38.15507875	     45.00000000	    -39.07220336	    819.54165007	  -2250.94393812	    138.37332921	    151.42533434	    370.71820857	      4.95617229	      5.92128093	    -20.57781688
      7.03000000	     39.29499666	      8.93102380	     10.78506531	   -235.21051091	    851.60821198	      2.95412393	     12.90964152	     36.14320968	     36.99738026	     45.00000000	    -45.00000000	  -2605.68218445	  -3702.65906467	    142.79227094	    179.99999979	   1453.98577525	     58.61088059	     23.06104362	      5.63922425	      7.33025250	    -45.00000000	    -38.07629072	     45.00000000	    -39.29787187	    819.58594928	  -2250.88643001	    138.39380321	    151.28812038	    370.71731452	      5.54170738	      5.71909827	    -20.57663018
      7.04000000	     39.27080189	      8.82425759	     10.55486579	   -236.44195354	    851.93437563	      3.05122273	     12.85003204	     36.10426910	     36.78057969	     45.00000000	    -45.00000000	  -2605.65077237	  -3702.72740580	    142.80219434	    179.99999979	   1453.90935842	     59.13480919	     23.08275767	      5.54364240	      7.31292055	    -45.00000000	    -38.06993309	     45.00000000	    -39.61695746	    819.55953200	  -2250.70674206	    138.26147037	    151.11581505	    370.70017812	      6.10978600	      5.54624281	    -20.56491289
      7.05000000	     39.33802536	      8.79387090	     10.73948788	   -237.65323849	    852.21401956	      3.15293379	     12.81714040	     36.05505185	     36.76402407	     45.00000000	    -45.00000000	  -2605.72722974	  -3702.67538732	    142.95697592	    179.99999979	   1453.98823968	     59.59860971	     23.06458847	      5.39201851	      7.34027935	    -45.00000000	    -37.94738069	     45.00000000	    -39.86365644	    819.69468245	  -2250.89641591	    138.41022502	    151.09663946	    370.80088288	      6.69494073	      5.34079373	    -20.56784411
      7.06000000	     39.30581049	      8.61521540	     10.68959418	   -238.83876687	    852.44838801	      3.25642258	     12.76276046	     36.04831234	     36.57171696	     45.00000000	    -45.00000000	  -2605.67615603	  -3702.64287415	    142.89249507	    179.99999979	   1453.96242644	     60.03698979	     23.09404021	      5.30913959	      7.39832861	    -45.00000000	    -37.88922312	     45.00000000	    -40.02200648	    819.78365100	  -2250.84394460	    138.41389131	    151.03600266	    370.80817116	      7.32439488	      5.14294150	    -20.54839400
      7.07000000	     39.30747403	      8.53973594	     10.57747842	   -239.98656126	    852.63791402	      3.35735682	     12.68550454	     36.00709128	     36.45350826	     45.00000000	    -45.00000000	  -2605.66871936	  -3702.74678719	    143.00236230	    179.99999979	   1453.97728421	     60.35188052	     23.08229262	      5.18081174	      7.37319234	    -45.00000000	    -37.84250016	     45.00000000	    -40.16253892	    819.80265126	  -2250.81209337	    138.41813847	    150.86299623	    370.84836778	      7.94710643	      4.99031717	    -20.53697966
      7.08000000	     39.32716593	      8.49714935	     10.66726434	   -241.09500954	    852.78490075	      3.45152708	     12.69552028	     35.98359278	     36.29128965	     45.00000000	    -45.00000000	  -2605.65985850	  -3702.65686104	    142.99614376	    179.99999979	   1453.86144125	     60.60270231	     23.10532188	      5.14900863	      7.40219288	    -45.00000000	    -37.67938466	     45.00000000	    -40.50959833	    819.91462076	  -2250.87424938	    138.40794041	    150.83693649	    370.88441488	      8.54333570	      4.73560982	    -20.49835172
      7.09000000	     39.28030393	      8.43319397	     10.51388855	   -242.14895080	    852.88904298	      3.53382630	     12.56007709	     35.93644402	     36.15612018	     45.00000000	    -45.00000000	  -2605.70362613	  -3702.92342029	    143.19037747	    179.99999979	   1454.14778411	     60.68932257	     23.14477518	      4.97545261	      7.40195762	    -45.00000000	    -37.64698908	     45.00000000	    -40.78361798	    819.84676934	  -2250.64997037	    138.36512983	    150.83300951	    370.98451501	      9.10086392	      4.59415520	    -20.48306797
